<?xml version="1.0" encoding="UTF-8"?>
<svg id="Layer_2" data-name="Layer 2" xmlns="http://www.w3.org/2000/svg" viewBox="0 0 1555.43 347.45">
  <defs>
    <style>
      .cls-1 {
        fill: #fff;
      }
    </style>
  </defs>
  <g id="Layer_1-2" data-name="Layer 1">
    <g>
      <path class="cls-1" d="M578.7,201.35c1.18,7.54,9.61,21.38,18.97,15.6,6.53-15.83,9.1-34.35,15.71-49.99,3.12-7.38,10.17-20.65,19.05-20.76,1.19,1.18-4.38,28.58-4.78,33.1-.74,8.21-1.16,21.38,1.71,28.95,5.97,15.72,29.18,9.9,36.85-1.92,14.61-22.52-10.47-50.59,3.17-73.54,4.37.08,11.07,46.4,12.64,52.57,3.56,13.95,9.88,33.11,28.35,27.71,5.29-1.55,10.43-4.34,9.18-10.53-.94-4.64-8.7-18.2-11.07-24.44-5.63-14.82-12.45-32.95-5.52-48.21,1.56,3.76,13.78,20.54,12.53,23-.7,1.37-3.18,1.9-3.01,3.92.38,4.48,6.47,16.23,8.24,21.51,3.82,11.4,7.21,22.19,4.54,34.3-2.8,12.69-17.2,26.71-9.21,40.38,11.25,19.24,36.63-7.36,45.45-16.63,11.57-12.16,37.37-47.54,54.68-47.09,6.05.16,11.13,4.57,17.13,4.95l4.47-9.67,20.45,13.59c31.53,16.67,68.09,24.94,103.14,31.19,103.83,18.49,216.75,15.62,321,1.12,50.44-7.01,100.42-17.5,149.81-29.61-.83,32.66,21.33,25.44,39.32,10.54,2.59-2.15,9.07-10.15,11.53-10.54,2.12-.34,1.15.43,1.47,1.43,1.81,5.56-.72,15,6.65,17.35,10.26,3.27,19.72-16.14,25.48-22.57,4.02,7.6,5.75,18.82,14.2,23.19,7.1,3.67,16.51,1.53,16.91-7.45.58-12.84-19.81-43.46-26.34-56.02-6.43-12.37-18.01-30.7-11.01-44.5l1.9-.6c4.68,8.14,17.86,12.76,17.28,23.97-1.07,1.21-6.75-5.7-6.7-1.45,15.96,24.9,46.48,64.67,25.35,94.43-8.37,11.79-25.18,13.82-33.48.98-2.12-3.28-1.48-8.45-6.73-7.67-2.19,14.91-18,23.22-29.28,11.06-1.45-1.56-4.79-9.47-6.71-8.14-10.23,19.87-37.79,26.23-47.08,1.48-.88-2.36-.67-8.24-3.28-8.26-43.33,12.65-87.25,23.62-131.78,31.41-145.12,25.38-297.73,22.68-437.72-25.6v28.77c-19.07-.95-17.78-40.12-28.07-44.35-7.52-3.09-21.14,7.17-26.63,12.2-15.1,13.82-42.36,53.45-62.1,56.85-25.76,4.44-23.92-30.27-23.29-46.77-14.14,3.51-26.28-3.1-32.79-15.65-1.25-2.41-1.12-5.43-3.18-7.35-2.5,0-4.76,12.05-5.76,14.36-5.91,13.64-25.74,20.47-38.56,12.66-19.72-12.01-10.51-48.55-8.94-67.32l-3.25.1-1.37,1.51c-3.78,14.09-5.99,28.7-10.05,42.71-1.74,6-5.47,20.59-11.48,23.04-4.96,2.02-8.39.66-11.67-3.19-8.9-10.43-13.35-51.81-8.93-64.4.49-1.41.93-3.22,2.62-3.62,1.29,11.56-1.73,26.8,0,37.89Z"/>
      <path class="cls-1" d="M268.76,41.65l-8.62-4.79c1.05,36.34,11.1,71.77,14.38,107.91,1.41,15.55,3.71,41.58-7.62,53.75-6.97,7.48-10.35,7.81-14.61,18.97-9.99,26.16-3.3,60.44,31.25,56.18,22.35-2.76,57.56-43.29,74.46-58.89,18.82-17.37,39.55-33.1,61.26-46.67,2.87-4.86-11.31-12.26-14.68-15.21-11.11-9.7-15.7-18.68-13.84-33.91,1.22-9.91,8.94-16.58,18.71-17.74,14.07-1.68,35.36.15,49.65,1.95,24.25,3.04,47.74,10.41,71.62,15.22-13.92,33.49-54.87,34.85-83.45,48.97l10.53,44.05c-20.7-1.63-35.71-7.64-27.83-31.64-9.11,1.56-12.59,7.95-15.07,16.09-5.32,17.44-13.31,50.17-3.34,66.09,19.51,31.16,69.04-6.51,87.05-22.7,2.78-2.5,14.54-13.55,15.85-15.8,4.17-7.16-8.77-25.93-11.74-33.45-3.63-9.2-4.09-17.43.19-26.55,1.65-.43,1.92.69,2.87,1.43,8.24,6.33,13.91,20.83,24.88,23.08,8.38,1.72,20.31-.46,23.07-9.74l-23-152.43c-.23-3.05-.48-20.01,2.47-20.67,3.71-.83,5.66,4.14,7.27,7.09,3.32,6.06,10.29,20.75,12.3,27.04.2.62.19,1.62-.46,1.41l-9.12-4.78c-3.33,3.74,13.54,81.12,15.19,92.71,3.41,23.95,10.11,76.82-26.23,77.14-2.75.02-8.15-2.26-9.65-.11,2.79,17.46-1.77,32.22-12.93,45.55-21.6,25.81-84.66,68.72-104.33,18.98-10.22-25.85,3.57-52.89,6-78.91l-86.81,81.07c-38.02,34.37-93.04,33.2-80.14-32.15.48-2.43,10.26-35.68,6.71-35.49-10.07,2.61-13.69-2.77-14.84,10.1-1.03,11.55,2.79,21.42-6.26,31.15-10.54,11.33-52.33,40.8-66.89,44.4-21.09,5.22-37.54-1.24-44.2-22.54-10.47-33.49,13.13-68.35,7-102.42,5.07,4.79,4.23,15.85,3.87,22.58-1.41,25.95-22.54,89.36,24.42,85.78,21.46-1.63,58.57-30.26,72.48-46.47,5.71-6.65,5.54-6.65,2.36-14.88-6.5-16.81-21.37-31.52-10.05-50.85,1.83-.45,1.84.69,2.69,1.61,10.52,11.42,13.91,27.39,33.28,25.25,15.07-1.67,13.42-14.62,12.94-26.37-1.97-48.38-17.44-95.93-23.1-143.88.1-4.58,3.48-11.6,6.79-14.87l17.27,38.36ZM492.33,131.82c-10.69-3.27-21.55-6.25-32.59-8.19-17.33-3.03-38.69-5.01-56.07-2.29-2.48.39-4.75,1.22-6.3,3.27,11.29,12.15,24.88,22.44,38.84,31.11l56.13-23.9Z"/>
      <path class="cls-1" d="M238.07,98.25c-.99,7.64-8.6,19.42-15.03,23.82-12.95,8.86-47.23,20.72-63.15,26.07-25.27,8.49-36.63,12.02-58.08-7.2-4.86-4.36-17.2-21.15-24.01-19.28-7.27,1.99-26.14,37.1-30.59,45.07,17.4,13.12,27.26,35.45,23.87,57.12-18.96.51-33.17-14.99-38.93-31.68-13.58,1.41-22.65,13.22-23.4,26.47-1.05,18.56,18.66,51.82,26.07,69.82,5.34,12.97,15.47,42.5,15.22,55.85-.06,3.14-2.25,4.07-3.7,2.15-.44-.58-1.73-9.35-2.36-11.52C33.76,299.99-.94,249.16,2.04,214.79c1.87-21.53,18.47-30.57,30.66-45.12,14.31-17.08,29.37-52.34,47.11-64.17,12.68-8.45,19.73,7.56,28.71,13.84-.05-18.32,5.08-38.16,26.41-40.27,34.07-3.39,68.97,20.51,103.14,19.18ZM195.84,110.72c-20.61-2.24-50.57-17.02-70.72-9.79-14.16,5.08-13.47,29.36-.1,34.07,14.64,5.16,47.03-8.36,60.58-15.82,1.13-.62,11.86-6.92,10.24-8.45Z"/>
      <path class="cls-1" d="M288.7,4.48l16.28,34.92-2.13,3.2c-2.35-.99-4.13-8.52-8.18-6.21,3.4,25.47,9.46,50.54,13.29,75.92,4.13,27.33,8.07,60.57,2.75,87.79-.43,2.21-.35,4.92-2.12,6.52-2.33.46-1.36-1.86-1.42-3.34-2.61-61.26-22.12-119.64-24.94-178.42-.21-4.43-.66-19.02,3.8-21.14l2.68.76Z"/>
      <path class="cls-1" d="M590.21,40.69l-9.12-6.7c1.04,57.14,26.46,113.04,14.87,170.73-3.14.59-4.28-1.7-4.72-4.39-8.08-55.27-10.48-113.82-21.47-168.45-1.97-9.8-6.34-13.62-1.16-24.76.61-1.3,2.42-4.89,4.36-3.38l17.23,36.96Z"/>
      <path class="cls-1" d="M746.61,40.69l-6.7-3.83c1.66,48.75,19.68,96.07,16.29,145.3-.46,6.62-1.68,16.02-5.27,21.59-1.65-27.07-4.65-54.04-8.29-80.91-3.87-28.56-8.12-59.92-13.58-88.1-2.13-10.98-6.86-14.81-2.1-26.65.86-2.15,2.06-4.81,4.29-5.76l15.36,38.36Z"/>
      <path class="cls-1" d="M1271.47,290.06c.57-1.91,2.73-2.32,4.37-2.82,12.94-3.9,26.63-3.72,40.02-8.91,13.07-5.07,50.16-29.03,61.18-27.21,9.6,1.58,18.68,17.21,23.98-2.3l9.91,5.6,9.25-7.52c.81,4.45-3.05,16.72-7.38,18.02-5.89,1.77-7.91-3.35-12.23-2.7-3.21.48-8.07,7.51-12.51,7.6-4.2.08-8.5-5.57-12.92-6.19-11.7-1.64-48.34,17.84-62.97,21.57-12.97,3.3-27.36,3.92-40.71,4.86Z"/>
      <path class="cls-1" d="M193.93,177.85c2.08,1.94-6.16,9.71-7.67,11.04-6.12,5.4-26.93,17.01-28.59,24.17-1.26,5.44,2.27,9.99,7.44,11.34,14.16,3.7,31.69-7.46,39.36-18.73-2.27,18.86-25.72,35.21-44.12,29.25-3.8-1.23-6.8-3.16-8.54-6.81-7.88-16.62,12.79-28.33,21.94-39.22-5.96-5.39-12.77.32-19.17,1.43,4.72-20.66,23.83-13.46,39.34-12.46Z"/>
      <path class="cls-1" d="M713.99.41l-4.8,17.25c-3.41-.71-.23-9.01-3.32-8.61-4.7.6-14.99,5.02-19.94,6.94-33.88,13.13-64.82,32.46-92.82,55.39-.36-14.79,15.43-22.66,26.36-29.75,14.88-9.66,30.67-17.84,46.87-25.09,6.2-2.77,44.21-19.35,47.66-16.13Z"/>
      <path class="cls-1" d="M518.25,10.97l-7.69,19.17.48-8.64c-21.11,4.66-40.59,14.34-58.92,25.51l-43.25,30.13c-2.48-2.87,7.88-13.32,10.04-15.37,26.25-24.85,64.79-41.49,99.34-50.8Z"/>
      <path class="cls-1" d="M509.61,287.2c12.2-3.94,24.56-8.38,35.79-14.59,4.75-2.63,18.5-10.71,19.66-15.83,1.79-7.9-3.3-20.92,8.19-24.06,6.86,4.14,16.5,14.22,13.66,22.88-2.61,7.95-14.74.92-16.85,2.28-8.41,17.71-26,27.11-44.87,30.01-3.74.58-13.39,2.36-15.57-.69Z"/>
      <path class="cls-1" d="M822.27,108.93c.12,17.12-20.95,16.32-31.04,24.79-3.24,5.58,6.48,38.22,4.32,40.29h-3.83c.42-20.41-19.66-50.72,10.56-58.04-.07-4.64-8.11-.77-10.56-1.43-1.61-1.61,6.27-13.83,8.65-14.84,7.96-3.38,14.68,7.55,21.91,9.22Z"/>
      <polygon class="cls-1" points="97.98 171.14 92.22 187.43 106.69 195.72 99.35 213.37 81.66 207.58 85.4 189.02 71.24 180.27 78.74 165.82 97.98 171.14"/>
      <path class="cls-1" d="M198,63.46c-3.37-3.18-3.24-11.79-2.19-16.02l-5.78-1.54c-1.11-4.3,9.35-15.25,10.61-13.84-.96,3.25.17,23.89,6.75,19.7,5.8-6.82.49-15.16,1.9-23.06.24-1.36.78-2.54,2.38-2.4,2.71.62,4.48,17.7,5.42,20.97l6.58,1.09c1.3-5.81-3.78-16.96-.05-21.64,2.51-3.14,4.26-1.36,4.86,1.98,1.18,6.66,3.91,24.25-.51,29.23s-10.86-1.11-15.12.18c-2.14.64-7.66,12.13-14.83,5.36Z"/>
      <path class="cls-1" d="M1480.73,76.28l-5.85,29.64c-2.22.55-1.58-.44-2.19-1.22-2.11-2.67-7.32-12.42-9.33-13.7-2.49-1.58-7.63,3.07-10.07,3.05-8.22-.05-9.24-22.33,1.85-21.7,7.59.43,11.97,12.53,16.39,17.24,3.9,0,7.17-30.28,14.61-32.43,10.19-2.94,10.86,13.75,7.04,19.55l-12.44-.44Z"/>
      <path class="cls-1" d="M361.84,44.53l-10.47-1.86-7.76,31.59c-2.25.47-1.54-.3-2.15-1.24-1.43-2.22-6.43-13.06-7.44-13.7-6.41-.78-15.33,5.43-17.04-3.99-1.27-7,.05-16.17,8.88-15.7,6.02.32,9.57,10,12.58,14.39.97,1.42,2.21,4.37,4.21,3.93,1.29-6.91,2.76-14.54,5.3-21.09,9.2-23.74,19.96-10.77,13.89,7.67Z"/>
      <path class="cls-1" d="M94.77,259.05c-6.01,5.95-26.27,7.67-28.26,14.43-2.24,7.58,6.02,30.56,5.55,42.02-.05,1.16.73,3.56-.94,3.34-.29-9.56-12.26-45.44-9.7-52.29,1.93-5.16,11.87-10.69,17.37-11.02,1.44-1.43-3.42-3.77-4.15-3.68-1.76.24-4.51,4.62-7.36,3.68-.29-4.79,4.53-13.08,9.31-14.18,9.74-2.23,29.42,6.57,18.19,17.69Z"/>
      <path class="cls-1" d="M652.63,265.19l-4.86,28.72-10.54-16.86-1.27-.28c-17.93,14.5-22.15-21.81-4.25-17.14,1.52.4,3.32,2.09,4.4,3.26s9.84,16.85,11.66,14.71c-.5-6.83,6-30.01,10.97-33.63,5.87-4.28,9.41,3.83,9.24,9.19-.38,12.59-4.2,11.02-15.36,12.03Z"/>
      <path class="cls-1" d="M666.97,69.47c1.6,11.71,7.81,23.47-.19,34.32-3.85.64-7.82-.15-11.69.31-14.73,1.76-20.92,11.92-19.91-13.4-.86-1.36-6.67-.07-5.62-2.52l9.58-10.08,1.09,16.18,9.47,2.04c.54-7.7-2.3-14.74.02-22.37,7.55-3.62,4.71,12.01,7.17,15.67.99,1.47,5.22,1.37,6.74,2.84,1.76-1.17,1.11-1.44,1.01-2.87-.44-6.18-6.25-17.45,2.34-20.12Z"/>
      <path class="cls-1" d="M818.58,60.83c-16.81-7.44-16.26,18.42-18.24,28.78-6.19.92-6.25-12.25-9.6-13.97-4.99-.81-10.54,3.87-14.91-.38s-2.8-17.61,3.96-18.21c10.26-.92,11.91,12.85,19.12,17.19,2.38-1.88,1.12-5.15,1.68-7.89.98-4.88,7.78-28.5,14.51-26.56,1.41.7,3.48,6.04,3.48,7.14v13.91Z"/>
      <path class="cls-1" d="M496.91,83.65c-4.85,1.75-9.51-1.42-14.68-.8-4.76.57-10.36,8.9-15.54,3.62-4.41-4.51.66-16.76-6.99-17.01l6.71-11.5,3.94,17.17,8.55.1c1.14-1.14-3.88-25.36,2.38-23.98,2.56.56,2.51,24.16,9.58,22.05,4.73-1.41-4-22.52,4.34-24.93,3.63,11.23,6.09,23.92,1.7,35.28Z"/>
      <path class="cls-1" d="M31.77,106.88c-2.01,16.26-13.38,32.32-29.74,36.43l14.39-15.82-16.31.49c-1.73-17.78,17.66-21.97,31.66-21.1Z"/>
      <path class="cls-1" d="M363.76,96.33c-.23,17.32-12.69,32.14-28.78,37.39l13.43-17.25-16.32.95c-.97-18.31,18.19-18.86,31.66-21.1Z"/>
      <path class="cls-1" d="M809.98,253.64c-7.01,19.13-25.54,34.86-46.1,36.43,14.98-13.57,32.59-23.34,45.5-39.4,1.84-2.29,6.6-11.13,8.24-11.94,7.04-3.49,12.45,11.41,5.73,16.31-4.66,3.4-8.57-.76-13.37-1.4Z"/>
      <path class="cls-1" d="M490.28,208.41l-16.47,2c-10.04,16.94-23.25,33.84-44.8,34.58-.4-1.85.94-2.29,2.01-3.26,7.12-6.51,16.49-10.24,23.91-16.39,11.12-9.22,18.11-22.15,28.36-32.11,2.17-.49,9.28,11.48,6.99,15.18Z"/>
      <path class="cls-1" d="M60.55,42.61c-1.77,8.96,8.22,11.92,11.38,18.85,3.6,7.9,2.03,18.24-6.57,21.91-22.42,9.58-14.11-22.84-9.61-33.59,1.09-2.62,1.99-5.87,4.81-7.17ZM69.19,73.29c1.03-6.95-14.57-10.83-16.18-5.06.37,9.01,9.99,7.31,16.18,5.06Z"/>
      <path class="cls-1" d="M1472.02,130.85c5.32,4.72,15.14,16.24,15.38,23.53.34,10.23-10.5,21.09-19.72,13.89-10.11-7.89,1.87-27.75,4.34-37.42ZM1481.49,159.51l.96-4.12-.82-1.02-13.45-5.28,2.94,11.43,10.37-1.01Z"/>
      <path class="cls-1" d="M1531.49,277.6c-.97.86-18.8-7.23-19.12-8.28l5.71-18.58,19.05,9.08-5.64,17.77Z"/>
      <path class="cls-1" d="M362.74,162.58c1.49,2.07-7.46,13.94-8.53,16.78l-17.31-5.36,9.26-18.13,16.58,6.71Z"/>
      <path class="cls-1" d="M376.23,257.46c-1.15,8.69-9.5,17.8-3.88,26.4l9.02-1.38c3.27.99.06,9.36-2.31,10.89-3.38,2.19-10.77,2.35-13.88-.4-7.6-6.73,2.73-30.96,11.05-35.51Z"/>
      <path class="cls-1" d="M399.26,67.54v-11.98c-1.09-12.09-13.82-25.22-12.52-36.49.9-7.83,8.07,1.11,10.05,4.43,7.34,12.29,8.6,31.09,2.47,44.03Z"/>
      <path class="cls-1" d="M292.76,238.29c-2.99,8.16-6.25,14.59-16.03,9.78-11.23-5.52-.25-27.4,5.96-33.76-.45,11.62-9.57,26.7,10.07,23.98Z"/>
      <path class="cls-1" d="M685.86,50.6c1.53,1.3,5.55,7.22,6.58,9.24,5.61,10.96,7.37,27.79,2.84,39.36-2.17-7.7-2.08-16.61-4.58-24.19-2.81-8.52-11.14-14.93-8.36-25.68,1.34-.17,2.55.44,3.53,1.27Z"/>
    </g>
  </g>
</svg>