<?xml version="1.0" encoding="UTF-8"?>
<svg id="Layer_2" data-name="Layer 2" xmlns="http://www.w3.org/2000/svg" viewBox="0 0 1610.07 435.63">
  <defs>
    <style>
      .cls-1 {
        fill: #fff;
      }
    </style>
  </defs>
  <g id="Layer_1-2" data-name="Layer 1">
    <g>
      <path class="cls-1" d="M1152.02,250.04c-49.7-6.04-19.12-64.81-35.9-94.26-12.5-21.94-45.8-21.75-62.78-5.43-1.85,1.78-10.29,14.75-10.29,15.95v83.74c-42.8-3.3-27.14-44.95-30.25-73.67-5.53-50.92-74.56-51.28-80.51.23-3.14,27.2,11.4,69.25-28.46,73.44v-89.79c0-1.19,9.67-18.87,11.23-21.06,27.86-39.27,81.66-39.72,112.87-4.2,30.93-35.16,83.56-35.51,111.65,3.41,2.27,3.14,12.46,21.93,12.46,23.87v87.78-.02Z"/>
      <path class="cls-1" d="M1305.37,250.04h-85.76c-7.08,0-27.51-13.88-33.08-19.39-60.78-59.9,13.87-153.94,85.19-111.42,14.81,8.83,33.65,33.55,33.65,51.09v79.7h0ZM1275.11,221.79v-51.46c0-11.01-19.01-28.63-29.71-30.82-34.51-7.06-54.74,19.51-48.09,52.12,2.38,11.68,17.8,30.15,30.38,30.15h47.42Z"/>
      <path class="cls-1" d="M1610.07,250.04h-85.76c-14.49,0-40.26-25.2-47.03-37.72-35.45-65.57,44.67-134.06,105.2-89.06,12.48,9.27,27.59,33.59,27.59,49.09v77.69h0ZM1579.81,221.79v-51.46c0-3.18-8.3-16.19-11.05-19.21-36.81-40.39-94.39,17.9-57.64,57.64,3.18,3.45,17.39,13.03,21.28,13.03h47.42Z"/>
      <path class="cls-1" d="M746.43,250.04h-83.74c-14.4,0-39.99-23.4-47.07-35.67-38.62-67,46.68-139.5,106.61-88.46,7.29,6.21,24.19,29.54,24.19,38.36v85.76h0ZM716.17,221.79c4.09,0,.67-45.3-.48-50.98-10.35-51.46-87.98-40.99-77.74,19.22,2.31,13.56,18.68,31.75,32.82,31.75h45.4,0Z"/>
      <path class="cls-1" d="M500.25,165.28h64.57v-56.5c10.43.59,28.25,12.05,28.25,23.21v118.04c-7.81,2.42-28.25-13.21-28.25-19.17v-37.33h-64.57v56.5c-12.91.95-30.26-15.09-30.26-27.24v-110.99c0-7.85,19.75,3.9,23.01,7.26,1.18,1.21,7.26,10.25,7.26,10.91v35.32h0Z"/>
      <path class="cls-1" d="M1456.71,250.04c-10.32.96-23.26-8.81-27.24-18.16-7.86-18.47,1.64-42.19-3.54-63.05-8.58-34.59-52.98-41.9-71.81-12.29-18.6,29.23,14.22,88.94-36.65,93.5v-83.74c0-2.55,6.24-16.9,8.03-20.22,24.92-46.5,89.61-49.68,119.98-6.89,1.88,2.65,11.23,21.34,11.23,23.08v87.78h0Z"/>
      <path class="cls-1" d="M754.51,111.81c2.1-7.52,20.86,4.21,23.92,8.36,7.79,10.52,4.86,24.94,7.73,36.67,7.13,29.22,45.79,38.53,66.5,17.81,20.71-20.72-.08-62.61,41.07-65.87,6.36,45.16-4.74,93.01-54.47,104.92v36.32h-30.26v-35.32c-10.85-6.69-24.08-9.92-33.37-19.1-5.74-5.67-21.11-30-21.11-37.4,0-10.11-2.01-39.19,0-46.41h0Z"/>
    </g>
    <g>
      <path class="cls-1" d="M164.26,259.91c-3.24,4.03-5.35,11.49-6.56,16.68-6.89,29.55,2.85,49.13,26.79,65.89,19.6,13.72,43.4,19.09,67.21,18.27,1.12.98-5.37,7.42-6.29,8.28-5.15,4.79-12,8.66-17.36,13.37-11.53,10.14-21.64,24.19-29.78,37.19-2.75,4.4-5.24,10.73-8.14,14.7-.48.66-.78,1.55-1.85,1.29-.85-.2-7.16-13.14-8.43-15.21-20.86-33.91-40.91-45.77-73.05-66.39C42.13,312.47,14.15,234.05,41.33,161c-.13-2.85-10.37-5.97-11.02-10.2,3.06-6.52,12.27-4.46,18.15-5.51l8.66-16.15c-4.9-1.62-23.45.15-25.63-4.76-.45-1.01-.38-1.33-.05-2.34,4.12-12.73,35.21-11.15,45.14-16.37,4.16-2.18,13.99-12.42,19.22-16.22,3.59-2.61,15.8-11.29,19.23-12.29,1-.29,1.58.19,1.16,1.16-1.45,3.3-8.59,9.04-10.3,12.63-1.33,2.8.11,3.65,2.6.94,4.7-5.11,8.38-14.68,15.98-14.8,10.49-.18,1.71,12.14-1.01,16.39-18.67,29.12-42.05,50.79-52.18,85.68-10.22,35.2-3.49,88.66,35.27,103.41,33.96,12.92,51.06-12.51,43.13-43.92-8.19-32.46-33.71-26.21-47.53-47.79-13.98-21.85-9.13-54.18,11.3-70.35.91-.72,7.89-5.92,7.46-2.79-.32,2.33-1.69,5.34-2.13,8.12-7.37,45.98,48.9,47.92,71.43,74.63,22.19,26.31,1.65,63.09,39.66,80.87,34,15.9,67.06-8.34,77.96-40.5,12.46-36.78,2.96-80.75-19.58-111.62-11.19-15.33-42-45.01-62.59-35.15-7.54,3.61-9.27,10.15-13.02,16.86-16.4-2.54-31.66-8.39-46.03-16.45l.99-1.75c20.82-5.59,41.88-11.12,63.32-13.88,7.55-.97,26.18-3.6,32.51-1.22,6.35,2.39,24.75,17.9,30.43,23.15,44.75,41.43,64.88,100.1,46.28,159.76-16.87,54.11-60.35,88.65-118.88,74.34-27.24-6.66-57.02-33.73-57.02-63.52v-11.42h0Z"/>
      <path class="cls-1" d="M235.16,234.7c3.72-7.9,6.26-14.19,5.5-23.22-4.38-52.18-95.87-43.39-108.47-95.57-10.45-43.31,33.21-66.69,69.88-69.49-10.16-11.7-22.21-19.14-35.46-6.69-3.99,3.75-5.74,9.08-10.22,12.22-3.77-22.65,16.45-38.35,31.22-51.94l45.57,43.28c.78,1.6.49,3.26.22,4.92-.38,2.39-4.12,15.08-5.13,16.93-.54.99-.95,1.6-2.16,1.77-21.55,5.12-45.63,5.63-66.54,13.03-25.29,8.96-21.7,21.91.22,32.01,32.01,14.75,92.16,21.47,107.81,57.63,11.12,25.68-8.77,55.18-32.44,65.13h0Z"/>
      <path class="cls-1" d="M149.29,29.09c.47.42-4.07,10.51-6.71,10.22H46.46c-18.42,1.79-32.55,15.49-35.73,33.59l-.11,249.67c2.67,28.03,22.34,36.18,47.66,37.42,11.88.58,27.69-2.6,38.59-.78,3.7.62,11.57,7.52,14.62,10.2H40.97c-9.3,0-23.36-11.22-29.16-18.11-14.43-17.15-10.11-30.13-10.59-50.86C-.36,233.02-.45,164.69,1.22,97.27c.51-20.64-3.58-33.46,10.98-50.47,5.67-6.62,19.84-17.71,28.77-17.71h108.32Z"/>
      <path class="cls-1" d="M258.01,369.42c-.34-1.38.57-1.57,1.17-2.37,1.85-2.41,7.29-7.33,10.29-7.83,10.06-1.68,22.86.69,33.01.78,22.78.19,49.62-.86,57.97-26.39,2.09-6.41,1.14-10.31,1.51-16.61,4.74-79.72-1.83-162.48.81-242.6-2.47-19.2-17.13-33.64-36.59-35.1-26.93-2.02-56.33,1.58-83.52.01-2.64-.5-7.8-7.44-8.29-10.22h98.87c15.51,0,37.71,25.38,39.02,40.54,1.77,20.41-.28,45.23-.06,66.24.65,63.65,1.3,127.55.73,191.31.13,15.49-23.95,42.24-38.9,42.24h-76.02,0Z"/>
      <path class="cls-1" d="M279.26,206.35c5.5,8.94,8.96,17.73,5.94,28.37-2.78,9.8-12.07,13.09-17.3,20.52-1.71,2.43-2.21,5.19-3.43,7.62-.26.53-.17,1.59-1.34.99-.98-.5-5.92-7.71-6.54-9.22-8.49-20.81,21.94-28.06,21.1-47.89l1.57-.39h0Z"/>
    </g>
    <g>
      <path class="cls-1" d="M1127.04,307.91h-2.88c-.52,0-.78-.26-.78-.78v-27.89c0-.52.26-.78.78-.78h2.88c.52,0,.78.26.78.78v11.45c0,.31.18.46.55.46h9.66c.31,0,.46-.15.46-.46v-11.45c0-.52.26-.78.78-.78h2.93c.52,0,.78.26.78.78v27.89c0,.52-.26.78-.78.78h-2.93c-.52,0-.78-.26-.78-.78v-11.59c0-.31-.16-.46-.46-.46h-9.66c-.37,0-.55.16-.55.46v11.59c0,.52-.26.78-.78.78Z"/>
      <path class="cls-1" d="M1157.64,307.91h-1.78c-2.26,0-4.01-.63-5.25-1.88s-1.86-2.99-1.86-5.22v-9.16c0-2.26.62-4.01,1.86-5.25,1.24-1.23,2.98-1.86,5.25-1.86h10.26c.55,0,.82.26.82.78v21.8c0,.52-.27.78-.82.78h-2.88c-.52,0-.78-.26-.78-.78v-1.65h-.18c-.73,1.62-2.27,2.43-4.62,2.43h0ZM1162.45,300.12v-11.22c0-.31-.17-.46-.51-.46h-5.45c-2.2,0-3.3,1.13-3.3,3.39v8.79c0,2.26,1.1,3.39,3.3,3.39h2.2c2.5,0,3.76-1.29,3.76-3.89h0Z"/>
      <path class="cls-1" d="M1170.19,315.06h-2.43c-.52,0-.78-.26-.78-.78v-2.33c0-.52.26-.78.78-.78h1.19c1.43,0,2.45-.31,3.05-.92s.89-1.63.89-3.07v-21.85c0-.52.26-.78.78-.78h2.88c.52,0,.78.26.78.78v22.62c0,2.23-.63,3.97-1.9,5.22-1.27,1.25-3.02,1.88-5.25,1.88h0ZM1172.89,280.66v-4.17c0-.49.24-.73.73-.73h2.98c.49,0,.73.24.73.73v4.17c0,.52-.24.78-.73.78h-2.98c-.49,0-.73-.26-.73-.78Z"/>
      <path class="cls-1" d="M1183.56,280.66v-4.17c0-.49.24-.73.73-.73h2.98c.49,0,.73.24.73.73v4.17c0,.52-.24.78-.73.78h-2.98c-.49,0-.73-.26-.73-.78ZM1183.56,307.13v-21.8c0-.52.24-.78.73-.78h2.93c.52,0,.78.26.78.78v21.8c0,.31-.06.51-.16.62s-.3.16-.57.16h-2.93c-.52,0-.78-.26-.78-.78Z"/>
      <path class="cls-1" d="M1213.7,295.13h-9.07c-.52,0-.78-.28-.78-.82v-2.02c0-.55.26-.82.78-.82h9.07c.52,0,.78.27.78.82v2.02c0,.55-.26.82-.78.82Z"/>
      <path class="cls-1" d="M1245.95,278.46h2.88c.55,0,.82.24.82.73v21.62c0,2.23-.63,3.97-1.9,5.22-1.27,1.25-3.02,1.88-5.25,1.88h-5.09c-2.23,0-3.97-.63-5.22-1.88-1.25-1.25-1.88-2.99-1.88-5.22v-21.57c0-.52.26-.78.78-.78h2.88c.52,0,.78.26.78.78v21.39c0,2.26,1.1,3.39,3.3,3.39h3.76c2.23,0,3.35-1.13,3.35-3.39v-21.39c0-.52.26-.78.78-.78h.01Z"/>
      <path class="cls-1" d="M1259.27,307.91h-2.88c-.52,0-.78-.26-.78-.78v-21.8c0-.52.26-.78.78-.78h2.88c.52,0,.78.26.78.78v1.65h.18c.88-1.62,2.5-2.43,4.86-2.43h1.51c2.66,0,4.55,1.01,5.68,3.02.49-.98,1.24-1.72,2.25-2.25,1.01-.52,2.09-.78,3.25-.78h1.47c2.23,0,3.93.62,5.11,1.86,1.17,1.24,1.76,2.98,1.76,5.25v15.48c0,.52-.26.78-.78.78h-2.93c-.52,0-.78-.26-.78-.78v-15.3c0-2.26-1.1-3.39-3.3-3.39h-1.33c-2.53,0-3.8,1.33-3.8,3.98v14.7c0,.52-.27.78-.82.78h-2.88c-.52,0-.78-.26-.78-.78v-15.3c0-2.26-1.1-3.39-3.3-3.39h-1.6c-2.51,0-3.76,1.3-3.76,3.89v14.79c0,.52-.26.78-.78.78h-.02Z"/>
      <path class="cls-1" d="M1295.32,307.91h-2.88c-.52,0-.78-.26-.78-.78v-21.8c0-.52.26-.78.78-.78h2.88c.52,0,.78.26.78.78v1.74h.18c.31-.76.89-1.37,1.76-1.83s1.84-.69,2.91-.69h1.7c.52,0,.78.26.78.78v2.38c0,.58-.26.82-.78.73h-2.75c-2.53,0-3.8,1.39-3.8,4.17v14.52c0,.52-.26.78-.78.78h0Z"/>
      <path class="cls-1" d="M1317.67,307.91h-4.03c-2.26,0-4.01-.63-5.25-1.88s-1.86-2.99-1.86-5.22v-9.16c0-2.26.62-4.01,1.86-5.25,1.24-1.23,2.98-1.86,5.25-1.86h4.03c2.23,0,3.98.62,5.25,1.86s1.9,2.98,1.9,5.25v9.16c0,2.23-.63,3.97-1.9,5.22-1.27,1.25-3.02,1.88-5.25,1.88ZM1314.28,304.01h2.8c2.2,0,3.3-1.11,3.3-3.35v-8.89c0-2.23-1.1-3.35-3.3-3.35h-2.8c-1.16,0-2,.27-2.52.8-.52.53-.78,1.38-.78,2.54v8.89c0,1.16.26,2.01.78,2.54.52.53,1.36.8,2.52.8h0Z"/>
      <path class="cls-1" d="M1333.75,307.91h-2.88c-.52,0-.78-.26-.78-.78v-30.64c0-.52.26-.78.78-.78h2.88c.52,0,.78.26.78.78v10.49h.18c.73-1.62,2.27-2.43,4.62-2.43h2.02c2.23,0,3.94.61,5.13,1.83,1.19,1.22,1.78,2.98,1.78,5.27v15.48c0,.52-.27.78-.82.78h-2.88c-.52,0-.78-.26-.78-.78v-15.3c0-2.26-1.12-3.39-3.35-3.39h-2.15c-2.51,0-3.76,1.3-3.76,3.89v14.79c0,.52-.26.78-.78.78h0Z"/>
      <path class="cls-1" d="M1373.46,295.13h-9.07c-.52,0-.78-.28-.78-.82v-2.02c0-.55.26-.82.78-.82h9.07c.52,0,.78.27.78.82v2.02c0,.55-.26.82-.78.82Z"/>
      <path class="cls-1" d="M1394.99,279.24v27.89c0,.52-.26.78-.78.78h-2.88c-.52,0-.78-.26-.78-.78v-27.89c0-.52.26-.78.78-.78h2.88c.52,0,.78.26.78.78Z"/>
      <path class="cls-1" d="M1409.78,307.91h-8.43c-.52,0-.78-.26-.78-.78v-2.25c0-.49.26-.73.78-.73h7.7c1.98,0,2.98-.69,2.98-2.06v-.55c0-1.22-.72-2.15-2.15-2.8l-4.99-2.38c-1.56-.73-2.69-1.54-3.39-2.43-.7-.88-1.06-2.05-1.06-3.48,0-3.94,2.18-5.91,6.55-5.91h7.6c.49,0,.73.26.73.78v2.25c0,.52-.24.78-.73.78h-6.69c-.92,0-1.62.16-2.11.48s-.73.74-.73,1.26v.51c0,.98.78,1.83,2.33,2.57l5.04,2.57c1.59.7,2.68,1.53,3.27,2.5.59.96.89,2.21.89,3.73,0,3.97-2.27,5.95-6.82,5.95h0Z"/>
      <path class="cls-1" d="M1425.26,307.91h-2.88c-.52,0-.78-.26-.78-.78v-30.64c0-.52.26-.78.78-.78h2.88c.52,0,.78.26.78.78v30.64c0,.52-.26.78-.78.78Z"/>
      <path class="cls-1" d="M1440.47,307.91h-1.78c-2.26,0-4.01-.63-5.25-1.88-1.24-1.25-1.86-2.99-1.86-5.22v-9.16c0-2.26.62-4.01,1.86-5.25,1.24-1.23,2.98-1.86,5.25-1.86h10.26c.55,0,.82.26.82.78v21.8c0,.52-.27.78-.82.78h-2.88c-.52,0-.78-.26-.78-.78v-1.65h-.18c-.73,1.62-2.27,2.43-4.62,2.43h0ZM1445.28,300.12v-11.22c0-.31-.17-.46-.51-.46h-5.45c-2.2,0-3.3,1.13-3.3,3.39v8.79c0,2.26,1.1,3.39,3.3,3.39h2.2c2.5,0,3.76-1.29,3.76-3.89h0Z"/>
      <path class="cls-1" d="M1459.16,307.91h-2.88c-.52,0-.78-.26-.78-.78v-21.8c0-.52.26-.78.78-.78h2.88c.52,0,.78.26.78.78v1.65h.18c.88-1.62,2.5-2.43,4.86-2.43h1.51c2.66,0,4.55,1.01,5.68,3.02.49-.98,1.24-1.72,2.25-2.25,1.01-.52,2.09-.78,3.25-.78h1.47c2.23,0,3.93.62,5.11,1.86,1.17,1.24,1.76,2.98,1.76,5.25v15.48c0,.52-.26.78-.78.78h-2.93c-.52,0-.78-.26-.78-.78v-15.3c0-2.26-1.1-3.39-3.3-3.39h-1.33c-2.53,0-3.8,1.33-3.8,3.98v14.7c0,.52-.28.78-.82.78h-2.88c-.52,0-.78-.26-.78-.78v-15.3c0-2.26-1.1-3.39-3.3-3.39h-1.6c-2.51,0-3.76,1.3-3.76,3.89v14.79c0,.52-.26.78-.78.78h-.01Z"/>
      <path class="cls-1" d="M1491.77,280.66v-4.17c0-.49.24-.73.73-.73h2.98c.49,0,.73.24.73.73v4.17c0,.52-.24.78-.73.78h-2.98c-.49,0-.73-.26-.73-.78ZM1491.77,307.13v-21.8c0-.52.24-.78.73-.78h2.93c.52,0,.78.26.78.78v21.8c0,.31-.06.51-.16.62-.11.11-.3.16-.57.16h-2.93c-.52,0-.78-.26-.78-.78h0Z"/>
      <path class="cls-1" d="M1516.41,304.8v2.38c0,.49-.28.73-.82.73h-6.74c-2.26,0-4.01-.63-5.25-1.88s-1.86-2.99-1.86-5.22v-9.16c0-2.26.62-4.01,1.86-5.25,1.24-1.23,2.98-1.86,5.25-1.86h6.74c.55,0,.82.26.82.78v2.38c0,.49-.28.73-.82.73h-6.09c-2.2,0-3.3,1.13-3.3,3.39v8.79c0,2.26,1.1,3.39,3.3,3.39h6.09c.55,0,.82.26.82.78Z"/>
      <path class="cls-1" d="M1540.18,307.91h-2.88c-.55,0-.82-.26-.82-.78v-24.32c0-.31-.16-.46-.46-.46h-5.77c-.55,0-.82-.26-.82-.78v-2.33c0-.52.27-.78.82-.78h16.99c.55,0,.82.26.82.78v2.33c0,.52-.28.78-.82.78h-5.77c-.34,0-.51.16-.51.46v24.32c0,.52-.26.78-.78.78h-.01Z"/>
      <path class="cls-1" d="M1562.21,307.91h-4.03c-2.26,0-4.01-.63-5.25-1.88s-1.86-2.99-1.86-5.22v-9.16c0-2.26.62-4.01,1.86-5.25,1.24-1.23,2.98-1.86,5.25-1.86h4.03c2.23,0,3.98.62,5.25,1.86,1.27,1.24,1.9,2.98,1.9,5.25v9.16c0,2.23-.63,3.97-1.9,5.22-1.27,1.25-3.02,1.88-5.25,1.88ZM1558.82,304.01h2.8c2.2,0,3.3-1.11,3.3-3.35v-8.89c0-2.23-1.1-3.35-3.3-3.35h-2.8c-1.16,0-2,.27-2.52.8s-.78,1.38-.78,2.54v8.89c0,1.16.26,2.01.78,2.54s1.36.8,2.52.8h0Z"/>
      <path class="cls-1" d="M1583.28,307.91h-2.06c-2.2,0-3.88-.62-5.06-1.86s-1.76-2.98-1.76-5.25v-15.48c0-.52.26-.78.78-.78h2.88c.52,0,.78.26.78.78v15.3c0,2.26,1.1,3.39,3.3,3.39h2.2c2.5,0,3.76-1.29,3.76-3.89v-14.79c0-.52.26-.78.78-.78h2.88c.55,0,.82.26.82.78v21.8c0,.52-.27.78-.82.78h-2.88c-.52,0-.78-.26-.78-.78v-1.65h-.18c-.73,1.62-2.27,2.43-4.62,2.43h0Z"/>
      <path class="cls-1" d="M1601.97,307.91h-2.88c-.52,0-.78-.26-.78-.78v-21.8c0-.52.26-.78.78-.78h2.88c.52,0,.78.26.78.78v1.74h.18c.31-.76.89-1.37,1.76-1.83.87-.46,1.84-.69,2.91-.69h1.7c.52,0,.78.26.78.78v2.38c0,.58-.26.82-.78.73h-2.75c-2.53,0-3.8,1.39-3.8,4.17v14.52c0,.52-.26.78-.78.78h0Z"/>
    </g>
  </g>
</svg>